<?xml version="1.0" encoding="utf-8"?>
<!-- Generator: Adobe Illustrator 19.1.0, SVG Export Plug-In . SVG Version: 6.00 Build 0)  -->
<svg version="1.1" id="Layer_1" xmlns="http://www.w3.org/2000/svg" xmlns:xlink="http://www.w3.org/1999/xlink" x="0px" y="0px"
	 viewBox="-128.3 309.4 598.2 606.6" style="enable-background:new -128.3 309.4 598.2 606.6;" xml:space="preserve">
<style type="text/css">
	.st0{fill:none;stroke:#000000;stroke-miterlimit:10;}
	.st1{fill:#CEE6BF;}
	.st2{fill:#70BB5C;}
	.st3{fill:#E8F5F5;}
	.st4{fill:#21A7DA;}
	.st5{fill:#F2A04E;}
	.st6{fill:#ECC49F;}
	.st7{fill:none;}
	.st8{enable-background:new    ;}
	.st9{opacity:0.9;fill:#0D8CAA;enable-background:new    ;}
	.st10{opacity:0.9;fill:#DC7928;enable-background:new    ;}
	.st11{opacity:0.9;fill:#4BA346;enable-background:new    ;}
	.st12{opacity:0.8;fill:#0D8CAA;enable-background:new    ;}
	.st13{opacity:0.8;fill:#DC7928;enable-background:new    ;}
	.st14{opacity:0.8;fill:#4BA346;enable-background:new    ;}
	.st15{opacity:0.7;fill:#0D8CAA;enable-background:new    ;}
	.st16{opacity:0.7;fill:#DC7928;enable-background:new    ;}
	.st17{opacity:0.7;fill:#4BA346;enable-background:new    ;}
	.st18{opacity:0.6;fill:#0D8CAA;enable-background:new    ;}
	.st19{opacity:0.6;fill:#DC7928;enable-background:new    ;}
	.st20{opacity:0.6;fill:#4BA346;enable-background:new    ;}
	.st21{opacity:0.5;fill:#0D8CAA;enable-background:new    ;}
	.st22{opacity:0.5;fill:#DC7928;enable-background:new    ;}
	.st23{opacity:0.5;fill:#4BA346;enable-background:new    ;}
	.st24{opacity:0.4;fill:#0D8CAA;enable-background:new    ;}
	.st25{opacity:0.4;fill:#DC7928;enable-background:new    ;}
	.st26{opacity:0.4;fill:#4BA346;enable-background:new    ;}
	.st27{fill:#0D8CAA;}
	.st28{fill:#DC7928;}
	.st29{fill:#4BA346;}
	.st30{fill:#FFFFFF;}
</style>
<g>
	<g>
		<path class="st0" d="M476.5,916"/>
		<path class="st0" d="M-129.2,309.4"/>
		<path class="st0" d="M476.5,309.4"/>
		<path class="st0" d="M-129.2,916"/>
	</g>
	<polygon class="st1" points="357.5,916 336.2,775.8 476.5,834.7 476.5,916 	"/>
	<polygon class="st2" points="336.2,775.8 470.7,886 470.7,839 	"/>
	<polygon class="st3" points="-129.2,845.9 -16.5,800.7 -42.2,916 -129.2,916 	"/>
	<polygon class="st4" points="-126.5,915.9 -16.5,800.7 -42.2,916 	"/>
	<polygon class="st5" points="-44.2,916 -88.8,840.7 105.2,916 	"/>
	<polygon class="st6" points="186.2,916 -88.8,840.7 105.2,916 	"/>
	<polygon class="st4" points="253.9,916 307.8,840.7 307.8,916 	"/>
	<polygon class="st3" points="406.3,916 308.7,840.7 308.7,916 	"/>
	<polygon class="st1" points="15.8,916 123.6,824.6 96.8,916 	"/>
	<polygon class="st2" points="158.9,916 96.8,916 123.6,824.6 	"/>
	<polygon class="st5" points="134.3,916 245.8,809.9 213.6,916 	"/>
	<polygon class="st6" points="289.9,916 245.8,809.9 213.6,916 	"/>
	<g>
		<path class="st0" d="M472.5,309.4"/>
		<path class="st0" d="M-128.2,915.5"/>
		<path class="st0" d="M472.5,915.5"/>
		<path class="st0" d="M-128.2,309.4"/>
	</g>
	<polygon class="st1" points="358.5,309.4 337.1,444.4 477.4,387.7 477.4,309.4 	"/>
	<polygon class="st2" points="337.1,444.4 471.8,338.3 471.8,383.6 	"/>
	<polygon class="st3" points="-128.2,376.9 -15.5,420.5 -41.3,309.4 -128.2,309.4 	"/>
	<polygon class="st4" points="-125.5,309.4 -15.5,420.5 -41.3,309.4 	"/>
	<polygon class="st5" points="-43.3,309.4 -87.8,382 106.1,309.4 	"/>
	<polygon class="st6" points="187.1,309.4 -87.8,382 106.1,309.4 	"/>
	<polygon class="st4" points="254.7,309.4 308.8,382 308.8,309.4 	"/>
	<polygon class="st3" points="407.3,309.4 309.6,382 309.6,309.4 	"/>
	<polygon class="st1" points="16.6,309.4 124.4,397.4 97.7,309.4 	"/>
	<polygon class="st2" points="159.9,309.4 97.7,309.4 124.4,397.4 	"/>
	<polygon class="st5" points="135.1,309.4 246.7,411.6 214.7,309.4 	"/>
	<polygon class="st6" points="291,309.4 246.7,411.6 214.7,309.4 	"/>
	<polygon class="st3" points="398,832.4 352.2,736 471.2,758.8 470.5,832.9 	"/>
	<polygon class="st4" points="470.3,830.5 352.2,736 471.2,758.8 	"/>
	<polygon class="st5" points="471.2,760.4 392.9,798 472.3,633.2 	"/>
	<polygon class="st6" points="473,564.2 392.9,798 472.3,633.2 	"/>
	<polygon class="st4" points="473.6,506.5 396.1,460 474.1,460.5 	"/>
	<polygon class="st3" points="474.9,376.6 396.1,459.4 474.1,459.9 	"/>
	<polygon class="st1" points="471.7,709.4 378.1,617 472.3,640.3 	"/>
	<polygon class="st2" points="472.8,587.4 472.3,640.3 378.1,617 	"/>
	<polygon class="st5" points="472.5,608.4 363.9,512.8 473.2,540.8 	"/>
	<polygon class="st6" points="473.9,475.7 363.9,512.8 473.2,540.8 	"/>
</g>
<g>
	<rect x="-1331.9" y="1187.7" width="515.8" height="612.9"/>
	<path d="M-816.1,1800.7"/>
	<path d="M-1331.9,1187.7"/>
	<path d="M-816.1,1187.7"/>
	<path d="M-1331.9,1800.7"/>
</g>
<rect x="-426.5" y="453.7" class="st7" width="219.9" height="44.1"/>
<text transform="matrix(1 0 0 1 -419.2229 471.6303)" style="font-family:'ShreeDev0714'; font-size:24.4187px; letter-spacing:2;">ALLISON PINZ</text>
<text transform="matrix(1 0 0 1 -292.5229 488.3303)" style="font-family:'ShreeDev0714'; font-size:13.9535px;">DESIGNER</text>
<g>
	<polygon class="st9" points="-1236.3,1452.3 -1212.1,1403.3 -1191.3,1452.3 	"/>
	<polygon class="st10" points="-1236.3,1517.2 -1212.1,1468.2 -1191.3,1517.2 	"/>
	<polygon class="st11" points="-1236.3,1582.1 -1212.1,1533.1 -1191.3,1582.1 	"/>
	<polygon class="st9" points="-1236.3,1649.9 -1212.1,1600.9 -1191.3,1649.9 	"/>
	<polygon class="st10" points="-1236.3,1711.6 -1212.1,1662.6 -1191.3,1711.6 	"/>
	<polygon class="st11" points="-1236.3,1776 -1212.1,1726.9 -1191.3,1776 	"/>
	<polygon class="st12" points="-1167.1,1452.3 -1142.9,1403.3 -1122.1,1452.3 	"/>
	<polygon class="st13" points="-1167.1,1517.2 -1142.9,1468.2 -1122.1,1517.2 	"/>
	<polygon class="st14" points="-1167.1,1582.1 -1142.9,1533.1 -1122.1,1582.1 	"/>
	<polygon class="st12" points="-1167.1,1649.9 -1142.9,1600.9 -1122.1,1649.9 	"/>
	<polygon class="st13" points="-1167.1,1711.6 -1142.9,1662.6 -1122.1,1711.6 	"/>
	<polygon class="st14" points="-1167.1,1776 -1142.9,1726.9 -1122.1,1776 	"/>
	<polygon class="st15" points="-1097.3,1452.3 -1073.1,1403.3 -1052.3,1452.3 	"/>
	<polygon class="st16" points="-1097.3,1517.2 -1073.1,1468.2 -1052.3,1517.2 	"/>
	<polygon class="st17" points="-1097.3,1582.1 -1073.1,1533.1 -1052.3,1582.1 	"/>
	<polygon class="st15" points="-1097.3,1649.9 -1073.1,1600.9 -1052.3,1649.9 	"/>
	<polygon class="st16" points="-1097.3,1711.6 -1073.1,1662.6 -1052.3,1711.6 	"/>
	<polygon class="st17" points="-1097.3,1776 -1073.1,1726.9 -1052.3,1776 	"/>
	<polygon class="st18" points="-1028.1,1452.3 -1003.9,1403.3 -983.1,1452.3 	"/>
	<polygon class="st19" points="-1028.1,1517.2 -1003.9,1468.2 -983.1,1517.2 	"/>
	<polygon class="st20" points="-1028.1,1582.1 -1003.9,1533.1 -983.1,1582.1 	"/>
	<polygon class="st18" points="-1028.1,1649.9 -1003.9,1600.9 -983.1,1649.9 	"/>
	<polygon class="st19" points="-1028.1,1711.6 -1003.9,1662.6 -983.1,1711.6 	"/>
	<polygon class="st20" points="-1028.1,1776 -1003.9,1726.9 -983.1,1776 	"/>
	<polygon class="st21" points="-960.6,1452.3 -936.4,1403.3 -915.6,1452.3 	"/>
	<polygon class="st22" points="-960.6,1517.2 -936.4,1468.2 -915.6,1517.2 	"/>
	<polygon class="st23" points="-960.6,1582.1 -936.4,1533.1 -915.6,1582.1 	"/>
	<polygon class="st21" points="-960.6,1649.9 -936.4,1600.9 -915.6,1649.9 	"/>
	<polygon class="st22" points="-960.6,1711.6 -936.4,1662.6 -915.6,1711.6 	"/>
	<polygon class="st23" points="-960.6,1776 -936.4,1726.9 -915.6,1776 	"/>
	<polygon class="st24" points="-887.1,1452.3 -862.9,1403.3 -842.1,1452.3 	"/>
	<polygon class="st25" points="-887.1,1517.2 -862.9,1468.2 -842.1,1517.2 	"/>
	<polygon class="st26" points="-887.1,1582.1 -862.9,1533.1 -842.1,1582.1 	"/>
	<polygon class="st24" points="-887.1,1649.9 -862.9,1600.9 -842.1,1649.9 	"/>
	<polygon class="st25" points="-887.1,1711.6 -862.9,1662.6 -842.1,1711.6 	"/>
	<polygon class="st26" points="-887.1,1776 -862.9,1726.9 -842.1,1776 	"/>
	<g>
		<g>
			<polygon class="st27" points="-1305.5,1254 -1281.3,1205 -1260.6,1254 			"/>
			<polygon class="st28" points="-1305.5,1316.8 -1281.3,1267.8 -1260.6,1316.8 			"/>
			<polygon class="st29" points="-1305.5,1383.3 -1281.3,1334.3 -1260.6,1383.3 			"/>
			<polygon class="st27" points="-1305.5,1452.3 -1281.3,1403.3 -1260.6,1452.3 			"/>
			<polygon class="st28" points="-1305.5,1517.2 -1281.3,1468.2 -1260.6,1517.2 			"/>
			<polygon class="st29" points="-1305.5,1582.1 -1281.3,1533.1 -1260.6,1582.1 			"/>
			<polygon class="st27" points="-1305.5,1649.9 -1281.3,1600.9 -1260.6,1649.9 			"/>
			<polygon class="st28" points="-1305.5,1711.6 -1281.3,1662.6 -1260.6,1711.6 			"/>
			<polygon class="st29" points="-1305.5,1776 -1281.3,1726.9 -1260.6,1776 			"/>
		</g>
		<polygon class="st9" points="-1236.3,1254 -1212.1,1205 -1191.3,1254 		"/>
		<polygon class="st10" points="-1236.3,1316.8 -1212.1,1267.8 -1191.3,1316.8 		"/>
		<polygon class="st11" points="-1236.3,1383.3 -1212.1,1334.3 -1191.3,1383.3 		"/>
		<polygon class="st12" points="-1167.1,1254 -1142.9,1205 -1122.1,1254 		"/>
		<polygon class="st13" points="-1167.1,1316.8 -1142.9,1267.8 -1122.1,1316.8 		"/>
		<polygon class="st14" points="-1167.1,1383.3 -1142.9,1334.3 -1122.1,1383.3 		"/>
		<polygon class="st15" points="-1097.3,1254 -1073.1,1205 -1052.3,1254 		"/>
		<polygon class="st16" points="-1097.3,1316.8 -1073.1,1267.8 -1052.3,1316.8 		"/>
		<polygon class="st17" points="-1097.3,1383.3 -1073.1,1334.3 -1052.3,1383.3 		"/>
		<polygon class="st18" points="-1028.1,1254 -1003.9,1205 -983.1,1254 		"/>
		<polygon class="st19" points="-1028.1,1316.8 -1003.9,1267.8 -983.1,1316.8 		"/>
		<polygon class="st20" points="-1028.1,1383.3 -1003.9,1334.3 -983.1,1383.3 		"/>
		<polygon class="st21" points="-960.6,1254 -936.4,1205 -915.6,1254 		"/>
		<polygon class="st22" points="-960.6,1316.8 -936.4,1267.8 -915.6,1316.8 		"/>
		<polygon class="st23" points="-960.6,1383.3 -936.4,1334.3 -915.6,1383.3 		"/>
		<polygon class="st24" points="-887.1,1254 -862.9,1205 -842.1,1254 		"/>
		<polygon class="st25" points="-887.1,1316.8 -862.9,1267.8 -842.1,1316.8 		"/>
		<polygon class="st26" points="-887.1,1383.3 -862.9,1334.3 -842.1,1383.3 		"/>
	</g>
</g>
<g>
	<text transform="matrix(1 0 0 1 -595.1647 378.4178)" class="st30" style="font-family:'Palatino-Roman'; font-size:25.686px;">ALLISON PINZ</text>
	<text transform="matrix(1 0 0 1 -537.3647 389.0178)" class="st30" style="font-family:'Palatino-Roman'; font-size:10.5766px;">BUSINESS PROFESSIONAL</text>
</g>
<text transform="matrix(1 0 0 1 -347.7614 264.5498)" class="st30" style="font-family:'Palatino-Roman'; font-size:58.1961px;">Welc</text>
<text transform="matrix(1 0 0 1 -218.9614 264.5498)" style="font-family:'MyriadPro-Regular'; font-size:58.1961px;">ome!</text>
</svg>
