<?xml version="1.0" encoding="utf-8"?>
<!-- Generator: Adobe Illustrator 19.1.0, SVG Export Plug-In . SVG Version: 6.00 Build 0)  -->
<svg version="1.1" id="Layer_1" xmlns="http://www.w3.org/2000/svg" xmlns:xlink="http://www.w3.org/1999/xlink" x="0px" y="0px"
	 viewBox="0 0 1800 1200" style="enable-background:new 0 0 1800 1200;" xml:space="preserve">
<style type="text/css">
	.st0{fill:#0D8CAA;}
	.st1{fill:#DC7928;}
	.st2{fill:#4BA346;}
	.st3{opacity:0.9;fill:#0D8CAA;}
	.st4{opacity:0.9;fill:#DC7928;}
	.st5{opacity:0.9;fill:#4BA346;}
	.st6{opacity:0.8;fill:#0D8CAA;}
	.st7{opacity:0.8;fill:#DC7928;}
	.st8{opacity:0.8;fill:#4BA346;}
	.st9{opacity:0.7;fill:#0D8CAA;}
	.st10{opacity:0.7;fill:#DC7928;}
	.st11{opacity:0.7;fill:#4BA346;}
	.st12{opacity:0.6;fill:#0D8CAA;}
	.st13{opacity:0.6;fill:#DC7928;}
	.st14{opacity:0.6;fill:#4BA346;}
	.st15{opacity:0.5;fill:#0D8CAA;}
	.st16{opacity:0.5;fill:#DC7928;}
	.st17{opacity:0.5;fill:#4BA346;}
	.st18{opacity:0.4;fill:#0D8CAA;}
	.st19{opacity:0.4;fill:#DC7928;}
	.st20{opacity:0.4;fill:#4BA346;}
	.st21{opacity:0.3;fill:#0D8CAA;}
	.st22{opacity:0.3;fill:#DC7928;}
	.st23{opacity:0.3;fill:#4BA346;}
	.st24{opacity:0.2;fill:#0D8CAA;}
	.st25{opacity:0.2;fill:#DC7928;}
	.st26{opacity:0.2;fill:#4BA346;}
	.st27{opacity:0.1;fill:#0D8CAA;}
	.st28{opacity:0.1;fill:#DC7928;}
	.st29{opacity:0.1;fill:#4BA346;}
</style>
<g>
	<rect x="0" width="1800" height="1200"/>
	<path d="M1800,1200"/>
	<path d="M0,0"/>
	<path d="M1800,0"/>
	<path d="M0,1200"/>
</g>
<g>
	<polygon class="st0" points="42.3,111.9 84.1,10.5 120,111.9 	"/>
	<polygon class="st1" points="42.3,241.9 84.1,140.5 120,241.9 	"/>
	<polygon class="st2" points="42.3,379.4 84.1,278 120,379.4 	"/>
	<polygon class="st0" points="42.3,522.1 84.1,420.7 120,522.1 	"/>
	<polygon class="st1" points="42.3,656.5 84.1,555.1 120,656.5 	"/>
	<polygon class="st2" points="42.3,790.8 84.1,689.4 120,790.8 	"/>
	<polygon class="st0" points="42.3,931 84.1,829.6 120,931 	"/>
	<polygon class="st1" points="42.3,1058.6 84.1,957.2 120,1058.6 	"/>
	<polygon class="st2" points="42.3,1191.7 84.1,1090.3 120,1191.7 	"/>
</g>
<g>
	<polygon class="st3" points="209.2,522.1 251,420.7 286.8,522.1 	"/>
	<polygon class="st4" points="209.2,656.5 251,555.1 286.8,656.5 	"/>
	<polygon class="st5" points="209.2,790.8 251,689.4 286.8,790.8 	"/>
	<polygon class="st3" points="209.2,931 251,829.6 286.8,931 	"/>
	<polygon class="st4" points="209.2,1058.6 251,957.2 286.8,1058.6 	"/>
	<polygon class="st5" points="209.2,1191.7 251,1090.3 286.8,1191.7 	"/>
	<polygon class="st3" points="209.2,111.9 251,10.5 286.8,111.9 	"/>
	<polygon class="st4" points="209.2,241.9 251,140.5 286.8,241.9 	"/>
	<polygon class="st5" points="209.2,379.4 251,278 286.8,379.4 	"/>
</g>
<g>
	<polygon class="st6" points="382.4,522.1 424.2,420.7 460.1,522.1 	"/>
	<polygon class="st7" points="382.4,656.5 424.2,555.1 460.1,656.5 	"/>
	<polygon class="st8" points="382.4,790.8 424.2,689.4 460.1,790.8 	"/>
	<polygon class="st6" points="382.4,931 424.2,829.6 460.1,931 	"/>
	<polygon class="st7" points="382.4,1058.6 424.2,957.2 460.1,1058.6 	"/>
	<polygon class="st8" points="382.4,1191.7 424.2,1090.3 460.1,1191.7 	"/>
	<polygon class="st6" points="382.4,111.9 424.2,10.5 460.1,111.9 	"/>
	<polygon class="st7" points="382.4,241.9 424.2,140.5 460.1,241.9 	"/>
	<polygon class="st8" points="382.4,379.4 424.2,278 460.1,379.4 	"/>
</g>
<g>
	<polygon class="st9" points="567,522.1 608.9,420.7 644.7,522.1 	"/>
	<polygon class="st10" points="567,656.5 608.9,555.1 644.7,656.5 	"/>
	<polygon class="st11" points="567,790.8 608.9,689.4 644.7,790.8 	"/>
	<polygon class="st9" points="567,931 608.9,829.6 644.7,931 	"/>
	<polygon class="st10" points="567,1058.6 608.9,957.2 644.7,1058.6 	"/>
	<polygon class="st11" points="567,1191.7 608.9,1090.3 644.7,1191.7 	"/>
	<polygon class="st9" points="567,111.9 608.9,10.5 644.7,111.9 	"/>
	<polygon class="st10" points="567,241.9 608.9,140.5 644.7,241.9 	"/>
	<polygon class="st11" points="567,379.4 608.9,278 644.7,379.4 	"/>
</g>
<g>
	<polygon class="st12" points="752.4,522.3 794.2,420.9 830.1,522.3 	"/>
	<polygon class="st13" points="752.4,656.7 794.2,555.3 830.1,656.7 	"/>
	<polygon class="st14" points="752.4,791 794.2,689.6 830.1,791 	"/>
	<polygon class="st12" points="752.4,931.1 794.2,829.7 830.1,931.1 	"/>
	<polygon class="st13" points="752.4,1058.8 794.2,957.4 830.1,1058.8 	"/>
	<polygon class="st14" points="752.4,1191.9 794.2,1090.5 830.1,1191.9 	"/>
	<polygon class="st12" points="752.4,112 794.2,10.6 830.1,112 	"/>
	<polygon class="st13" points="752.4,242.1 794.2,140.7 830.1,242.1 	"/>
	<polygon class="st14" points="752.4,379.5 794.2,278.1 830.1,379.5 	"/>
</g>
<g>
	<polygon class="st15" points="941.5,522.1 983.3,420.7 1019.2,522.1 	"/>
	<polygon class="st16" points="941.5,656.5 983.3,555.1 1019.2,656.5 	"/>
	<polygon class="st17" points="941.5,790.8 983.3,689.4 1019.2,790.8 	"/>
	<polygon class="st15" points="941.5,931 983.3,829.6 1019.2,931 	"/>
	<polygon class="st16" points="941.5,1058.6 983.3,957.2 1019.2,1058.6 	"/>
	<polygon class="st17" points="941.5,1191.7 983.3,1090.3 1019.2,1191.7 	"/>
	<polygon class="st15" points="941.5,111.9 983.3,10.5 1019.2,111.9 	"/>
	<polygon class="st16" points="941.5,241.9 983.3,140.5 1019.2,241.9 	"/>
	<polygon class="st17" points="941.5,379.4 983.3,278 1019.2,379.4 	"/>
</g>
<g>
	<polygon class="st18" points="1119.3,522.1 1161.1,420.7 1196.9,522.1 	"/>
	<polygon class="st19" points="1119.3,656.5 1161.1,555.1 1196.9,656.5 	"/>
	<polygon class="st20" points="1119.3,790.8 1161.1,689.4 1196.9,790.8 	"/>
	<polygon class="st18" points="1119.3,931 1161.1,829.6 1196.9,931 	"/>
	<polygon class="st19" points="1119.3,1058.6 1161.1,957.2 1196.9,1058.6 	"/>
	<polygon class="st20" points="1119.3,1191.7 1161.1,1090.3 1196.9,1191.7 	"/>
	<polygon class="st18" points="1119.3,111.9 1161.1,10.5 1196.9,111.9 	"/>
	<polygon class="st19" points="1119.3,241.9 1161.1,140.5 1196.9,241.9 	"/>
	<polygon class="st20" points="1119.3,379.4 1161.1,278 1196.9,379.4 	"/>
</g>
<g>
	<polygon class="st21" points="1302.5,111.9 1344.3,10.5 1380.1,111.9 	"/>
	<polygon class="st22" points="1302.5,241.9 1344.3,140.5 1380.1,241.9 	"/>
	<polygon class="st23" points="1302.5,379.4 1344.3,278 1380.1,379.4 	"/>
	<polygon class="st21" points="1302.5,522.1 1344.3,420.7 1380.1,522.1 	"/>
	<polygon class="st22" points="1302.5,656.5 1344.3,555.1 1380.1,656.5 	"/>
	<polygon class="st23" points="1302.5,790.8 1344.3,689.4 1380.1,790.8 	"/>
	<polygon class="st21" points="1302.5,931 1344.3,829.6 1380.1,931 	"/>
	<polygon class="st22" points="1302.5,1058.6 1344.3,957.2 1380.1,1058.6 	"/>
	<polygon class="st23" points="1302.5,1191.7 1344.3,1090.3 1380.1,1191.7 	"/>
</g>
<g>
	<polygon class="st24" points="1484.7,113.8 1526.5,12.4 1562.3,113.8 	"/>
	<polygon class="st25" points="1484.7,243.8 1526.5,142.4 1562.3,243.8 	"/>
	<polygon class="st26" points="1484.7,381.2 1526.5,279.8 1562.3,381.2 	"/>
	<polygon class="st24" points="1484.7,524 1526.5,422.6 1562.3,524 	"/>
	<polygon class="st25" points="1484.7,658.4 1526.5,557 1562.3,658.4 	"/>
	<polygon class="st26" points="1484.7,792.7 1526.5,691.3 1562.3,792.7 	"/>
	<polygon class="st24" points="1484.7,932.9 1526.5,831.5 1562.3,932.9 	"/>
	<polygon class="st25" points="1484.7,1060.5 1526.5,959.1 1562.3,1060.5 	"/>
	<polygon class="st26" points="1484.7,1193.6 1526.5,1092.2 1562.3,1193.6 	"/>
</g>
<g>
	<polygon class="st27" points="1669.5,111.9 1711.3,10.5 1747.1,111.9 	"/>
	<polygon class="st28" points="1669.5,241.9 1711.3,140.5 1747.1,241.9 	"/>
	<polygon class="st29" points="1669.5,379.4 1711.3,278 1747.1,379.4 	"/>
	<polygon class="st27" points="1669.5,522.1 1711.3,420.7 1747.1,522.1 	"/>
	<polygon class="st28" points="1669.5,656.5 1711.3,555.1 1747.1,656.5 	"/>
	<polygon class="st29" points="1669.5,790.8 1711.3,689.4 1747.1,790.8 	"/>
	<polygon class="st27" points="1669.5,931 1711.3,829.6 1747.1,931 	"/>
	<polygon class="st28" points="1669.5,1058.6 1711.3,957.2 1747.1,1058.6 	"/>
	<polygon class="st29" points="1669.5,1191.7 1711.3,1090.3 1747.1,1191.7 	"/>
</g>
</svg>
