<?xml version="1.0" encoding="utf-8"?>
<!-- Generator: Adobe Illustrator 19.1.0, SVG Export Plug-In . SVG Version: 6.00 Build 0)  -->
<svg version="1.1" id="Layer_1" xmlns="http://www.w3.org/2000/svg" xmlns:xlink="http://www.w3.org/1999/xlink" x="0px" y="0px"
	 viewBox="0 0 319.5 1250" style="enable-background:new 0 0 319.5 1250;" xml:space="preserve">
<style type="text/css">
	.st0{fill:#CEE6BF;}
	.st1{fill:#70BB5C;}
	.st2{fill:#E8F5F5;}
	.st3{fill:#21A7DA;}
	.st4{fill:#F2A04E;}
	.st5{fill:#ECC49F;}
</style>
<g>
	<polygon class="st0" points="323.3,1003.8 17.5,961.4 147.4,1250 324.5,1249.1 	"/>
	<polygon class="st1" points="17.5,961.4 259.2,1237.7 156.5,1238.2 	"/>
	<polygon class="st2" points="165.6,0.8 68.2,233.9 319.3,179.4 318.4,0 	"/>
	<polygon class="st3" points="318.3,5.8 68.2,233.9 319.3,179.4 	"/>
	<polygon class="st4" points="319.2,175.3 154.5,84.2 320.7,483.5 	"/>
	<polygon class="st5" points="321.6,650.4 154.5,84.2 320.7,483.5 	"/>
	<polygon class="st3" points="322.3,790 158.6,902.2 322.8,901.4 	"/>
	<polygon class="st2" points="323.8,1104.6 158.6,903.8 322.8,903 	"/>
	<polygon class="st0" points="319.8,298.9 121.8,522.2 320.6,466.2 	"/>
	<polygon class="st1" points="321.3,594.2 320.6,466.2 121.8,522.2 	"/>
	<polygon class="st4" points="321,543.3 90.8,774.4 321.8,707.1 	"/>
	<polygon class="st5" points="322.6,864.7 90.8,774.4 321.8,707.1 	"/>
</g>
</svg>
