<?xml version="1.0" encoding="utf-8"?>
<!-- Generator: Adobe Illustrator 19.1.0, SVG Export Plug-In . SVG Version: 6.00 Build 0)  -->
<svg version="1.1" id="Layer_1" xmlns="http://www.w3.org/2000/svg" xmlns:xlink="http://www.w3.org/1999/xlink" x="0px" y="0px"
	 viewBox="0 0 362.9 363.5" style="enable-background:new 0 0 362.9 363.5;" xml:space="preserve">
<polygon points="-69.1,116.7 -27.9,72 -9.8,90 45.2,35 27.1,17.8 76.6,10.7 67.9,59.4 55.4,43.7 -9.8,109.7 -29.5,90 -69.1,132.4 
	"/>
<polygon points="80.5,86.1 55.1,59.2 -10.9,124.3 -23.3,108.4 -32.6,157 17,150.6 -0.8,133.1 54.9,78.8 71.6,96 "/>
<polygon points="116.6,141.5 150.4,126.5 111,42.5 130,36.1 87.3,11.3 76.9,60.1 99.3,49.1 132,119.7 110.2,129.8 "/>
<polygon points="104.7,82.2 118.2,106.1 60.9,131.7 73.4,147.5 24,144.9 42.1,98.3 54.8,119.8 99.8,99.5 93,88.5 "/>
<polygon points="112.1,253 121.2,192.8 95.8,190 99.1,163.3 123.9,166.6 98.4,123.6 65.8,160.8 85.9,160.8 80.5,202.3 108.1,205.3 
	101.3,252.9 "/>
<polygon points="212.4,254.3 174.3,222.8 174.9,242.9 133.2,238.7 142.8,175.7 112.5,172 110.3,186.3 127.2,187.5 119.8,236.3 
	117.2,251 172.7,256.1 170.1,281 "/>
<polygon points="-12.5,146.8 -24.3,206.5 1,210.5 -11,287.3 -35.6,282.9 -12.1,327 22.1,291.3 2,290.4 16.8,198.9 -10.6,194.6 
	0.2,137.5 "/>
<polygon points="51.1,285.7 14.4,281.1 28,189.3 7.9,188.7 41.6,152.6 65.7,196.4 41.1,192.3 30.1,269.3 53.9,272.7 "/>
<polygon points="62.3,307.5 89.5,304.3 76.3,243 96.4,243.7 65.2,205.4 38.2,247.5 63.1,245.1 73.3,293.4 60.4,294.3 "/>
<polygon points="147,232.6 155.3,182 176.4,186.3 180.7,164.1 160,160.3 191.6,132.4 208.1,170.7 191.9,165.5 185.5,200.2 
	162.6,195.4 155.6,235.3 "/>
<polygon points="253.2,157.3 203.8,155.1 217.7,140.6 184,115.8 148.8,168.9 123.9,151.3 131.9,139.3 145.2,149.7 172.5,108.6 
	180.3,95.9 225,129.4 239.7,109.2 "/>
<polygon points="153.4,14.4 194.7,59.2 212.8,41.1 267.7,96.1 249.7,113.4 299.2,120.5 290.5,71.8 277.9,87.5 212.8,21.5 
	193.1,41.1 153.4,-1.3 "/>
<polygon points="303.1,45.1 277.7,72 211.6,6.8 199.3,22.7 190,-25.9 239.6,-19.5 221.7,-1.9 277.4,52.3 294.2,35.1 "/>
<polygon points="339.2,-10.3 373,4.7 333.5,88.6 352.6,95 309.9,119.9 299.5,71 321.9,82 354.6,11.5 332.8,1.4 "/>
<polygon points="327.3,48.9 340.7,25.1 283.5,-0.5 295.9,-16.3 246.5,-13.7 264.6,32.9 277.4,11.4 322.4,31.7 315.5,42.7 "/>
<polygon points="281.6,353 290.7,292.8 315.8,297.7 320.6,271.2 295.9,267 333,233.4 353.1,278.6 333.9,272.6 326.8,313.9 
	299.5,308.7 292,356.2 "/>
<polygon points="185.4,324.7 231.2,305.9 224.7,324.9 265.7,333.2 275.2,270.1 305.2,275.6 303,289.8 286.5,286 279.2,334.8 
	277.4,349.6 222.8,338.2 218,362.7 "/>
<polygon points="254.4,323.2 261.3,272.4 239.9,270.4 242.3,247.9 263.2,250.3 241.2,214.4 214.3,246.1 231.2,245.9 227.1,280.9 
	250.4,283.1 245.3,323.3 "/>
<polygon points="175.1,220 223,232.5 213.9,214.5 253.5,200.8 271.4,261.9 300.4,252.4 296.3,238.6 280.5,244.6 266.6,197.2 
	262.8,182.9 210.3,201.6 202.1,178 "/>
<polygon points="218.9,272.4 215.8,304.3 136,294.7 136,312.2 103.8,283.8 141.2,261.9 138.2,283.4 205.2,290.9 207.5,270.3 "/>
<polygon points="26.1,299.1 21.5,330.4 94.1,334.2 87.2,356.4 139.5,333 100.5,290.2 95.7,318.8 38.6,315.6 41.4,300.9 "/>
<polygon points="127.4,410.1 135.8,359.5 156.9,363.9 161.2,341.7 140.5,337.8 172.1,310 188.5,348.3 172.4,343 166,377.7 143,373 
	136.1,412.9 "/>
<polygon points="282.2,405.1 298.7,356.5 318.8,364.3 326.7,343.1 306.9,335.9 342.6,313.6 352.5,354.1 337.5,346.3 325.5,379.4 
	303.7,371 290.3,409.3 "/>
<polygon points="69.7,369.8 73,351.9 31.3,348.2 35.7,335.5 5.1,347.8 26.7,373.3 30,357 62.8,360 60.9,368.4 "/>
<polygon points="-18.1,59.5 -2.3,68.6 15.1,30.5 25.6,38.8 24,5.9 -7.1,17.7 7.2,26.3 -6.6,56.3 -13.9,51.7 "/>
<polygon points="232.1,108.7 194.9,66.1 177.7,82.4 160.8,64 178,48.4 132.2,40.6 139,86 151.1,71.8 177.2,100.6 195.9,82.9 
	225.5,116.3 "/>
<polygon points="384,187.3 332.3,189.9 334.3,211.5 311.5,213.3 310.1,192.1 278.5,220.6 315.1,241.5 311.6,224.7 347.1,222.2 
	345,198.7 385.8,196.3 "/>
<polygon points="355.6,92.3 334.6,126.8 350.8,124 352.1,158.1 300.1,157.6 300.6,182.5 312.4,182.6 311.4,168.8 351.7,169.2 
	363.9,169.7 361.7,124.2 382.1,123.4 "/>
<polygon points="335.1,148.1 298.5,155.1 296.3,139.7 280,142.3 282.6,157.3 255.8,142.8 277.7,122 278.2,134.3 303.4,130 
	305.9,146.8 334.8,141.5 "/>
<polygon points="295.7,196.5 266.5,188.3 270.4,176.2 257.6,172.2 254,184.2 239.6,163.8 263.2,156.6 259.1,165.7 279.1,171.7 
	274.9,184.9 297.9,191.6 "/>
<polygon points="113.3,-13.7 138,4 130.2,14 140.9,22.1 148.3,12.1 154.9,36.2 130.3,34.9 137.3,27.7 120.5,15.3 129,4.3 
	109.5,-9.7 "/>
</svg>
